# xmcd CD database file
#
# Track frame offsets:
#	150
#	27117
#	47308
#
# Disc length: 934 seconds
#
# Revision: 0
# Processed by: cddbd v1.5.1PL0 Copyright (c) Steve Scherf et al.
# Submitted via: CDex 1.51
#
DISCID=1503a403
DTITLE=新日本フィルハーモニー交響楽団 - TOUR de JAPON
DYEAR=2004
DGENRE=クラシック (日本)
TTITLE0=エアリスのテーマ
TTITLE1=独りじゃない
TTITLE2=愛のテーマ
EXTD=YEAR: 2004
EXTT0=
EXTT1=
EXTT2=
PLAYORDER=
